<svg xmlns="http://www.w3.org/2000/svg" viewBox="0 0 48 48" id="ig">
  <g>
    <path d="M39 0H8.83A8.821 8.821 0 0 0 0 9v6a1 1 0 0 0 1 1H11a1 1 0 0 0 0-2H2V9A6.843 6.843 0 0 1 8.83 2H39a7.008 7.008 0 0 1 7 7v5H37a1 1 0 0 0 0 2H47a1 1 0 0 0 1-1V9A9.01 9.01 0 0 0 39 0zM47 18a1 1 0 0 0-1 1V39a7.008 7.008 0 0 1-7 7H9a7.008 7.008 0 0 1-7-7V19a1 1 0 0 0-2 0V39a9.01 9.01 0 0 0 9 9H39a9.01 9.01 0 0 0 9-9V19A1 1 0 0 0 47 18z"></path>
    <path d="M12,26A12,12,0,1,0,24,14,12.014,12.014,0,0,0,12,26Zm22,0A10,10,0,1,1,24,16,10.011,10.011,0,0,1,34,26Z"></path>
    <path d="M16 26a8 8 0 1 0 8-8A8.009 8.009 0 0 0 16 26zm14 0a6 6 0 1 1-6-6A6.007 6.007 0 0 1 30 26zM35 11a3 3 0 1 0-3-3A3 3 0 0 0 35 11zm0-4a1 1 0 1 1-1 1A1 1 0 0 1 35 7z"></path>
  </g>
</svg>